<?xml version="1.0" standalone="no"?>
<!DOCTYPE svg PUBLIC "-//W3C//DTD SVG 1.1//EN" "http://www.w3.org/Graphics/SVG/1.1/DTD/svg11.dtd">
<svg xmlns="http://www.w3.org/2000/svg">
<defs >
<font id="Rosario" horiz-adv-x="518" ><font-face
    font-family="Rosario Light SemiBold"
    units-per-em="1000"
    panose-1="0 0 0 0 0 0 0 0 0 0"
    ascent="977"
    descent="-235"
    alphabetic="0" />
<glyph unicode=" " horiz-adv-x="230" />
<glyph unicode="!" horiz-adv-x="329" d="M103 730H234L205 218H132L103 730ZM239 57Q239 28 218 8T169 -13Q141 -13 120 7T99 57Q99 86 119 106T169 126Q197 126 218 106T239 57Z" />
<glyph unicode="&quot;" horiz-adv-x="367" d="M98 444Q97 447 92 465T82 504T71 541T66 557V733H154V557L123 444H98ZM244 444L213 557V733H301V557L270 444H244Z" />
<glyph unicode="#" horiz-adv-x="640" d="M289 499H393L423 726H502L471 499H585V423H462L444 299H561V224H434L403 -3H324L355 224H252L220 -3H142L173 224H55V299H183L200 423H81V499H210L240 726H320L289 499ZM279 423L262 299H366L383 423H279Z" />
<glyph unicode="$" horiz-adv-x="536" d="M480 644L424 569Q392 594 356 606T286 619Q240 619 208 595T176 519Q176 477 209 456T286 417Q321 404 357 389T424 352T475 294T495 205Q495 134 461 86T371 13T246 -12Q195 -12 141 1T35 44L76 138Q114 105 158 88T244
71Q299 71 337 100T375 187Q375 224 357 246T308 284T242 312Q210 324 177 338T117 373T74 425T57 503Q57 567 89 611T173 678T288 701Q336 701 385 687T480 644ZM281 26L265 -134H185L227 26H281ZM254 671L268 821H350L311 671H254Z" />
<glyph unicode="%" horiz-adv-x="941" d="M619 731H697L323 -4H247L619 731ZM222 731Q282 731 318 703T372 628T389 520Q389 462 369 414T311 338T213 309Q155 309 118 337T64 414T46 520Q46 580 65 627T124 703T222 731ZM218 670Q179 670 159 647T132 589T125
520Q125 485 131 451T158 393T218 370Q258 370 277 393T303 450T310 520Q310 555 304 589T278 646T218 670ZM728 412Q787 412 823 384T877 309T894 202Q894 144 875 96T816 19T719 -10Q661 -10 624 19T570 96T552 202Q552 262 571 309T630 384T728 412ZM723 350Q685
350 665 327T637 270T630 202Q630 167 636 133T663 75T723 52Q764 52 783 75T809 132T816 202Q816 236 809 270T783 327T723 350ZM222 731H634V670H218L222 731Z" />
<glyph unicode="&amp;" horiz-adv-x="661" d="M591 323Q545 160 455 76T236 -9Q167 -9 119 17T46 88T21 185Q21 259 68 320T207 415L231 349Q182 331 154 294T126 202Q126 165 141 133T184 81T253 61Q306 61 358 92T452 185T509 341L591 323ZM670 -2Q650 -6 632
-7T595 -9Q463 -9 370 58Q304 106 249 180T162 343T129 525Q129 591 150 639T211 714T302 740Q365 740 401 705T437 612Q437 565 415 515T347 422T235 350L215 417Q261 435 288 468T328 537T341 604Q341 635 330 652T296 670Q264 670 248 637T232 542Q232 457 261
376T338 229T443 122Q481 96 520 83T600 69Q615 69 629 70T659 75L670 -2Z" />
<glyph unicode="&apos;" horiz-adv-x="226" d="M99 447Q98 450 94 467T83 506T73 543T68 560V735H156V560L124 447H99Z" />
<glyph unicode="(" horiz-adv-x="306" d="M221 -141Q140 -49 90 63T40 300Q40 425 90 538T221 743L300 730Q246 665 211 598T159 458T142 300Q142 217 159 144T211 3T300 -129L221 -141Z" />
<glyph unicode=")" horiz-adv-x="306" d="M277 300Q277 176 228 64T96 -141L17 -129Q71 -64 106 2T158 143T176 300Q176 385 159 458T106 598T17 730L96 743Q178 651 227 538T277 300Z" />
<glyph unicode="*" horiz-adv-x="510" d="M206 735H298L278 588H229L206 735ZM286 584L412 654L446 564L301 536L286 584ZM90 650L223 583L208 540L65 561L90 650ZM210 530L250 500L181 370L109 423L210 530ZM258 500L297 527L402 425L328 368L258 500Z" />
<glyph unicode="+" horiz-adv-x="642" d="M355 0H278V210H68V287H278V497H355V287H566V211H355V0Z" />
<glyph unicode="," horiz-adv-x="235" d="M105 130Q143 130 163 104T183 42Q183 -12 152 -56T78 -130Q69 -121 60 -112T42 -93Q51 -84 62 -72T81 -47T90 -21Q90 -8 78 1T53 25T41 66Q41 93 60 111T105 130Z" />
<glyph unicode="-" horiz-adv-x="313" d="M44 302H271V218H44V302Z" />
<glyph unicode="." horiz-adv-x="228" d="M178 60Q178 31 157 10T107 -11Q78 -11 58 10T37 60Q37 89 57 110T107 131Q136 131 157 110T178 60Z" />
<glyph unicode="/" horiz-adv-x="326" d="M259 729H337L69 -5H-10L259 729Z" />
<glyph unicode="0" horiz-adv-x="573" d="M292 509Q370 509 423 476T503 383T531 248Q531 174 501 115T415 22T281 -13Q204 -13 151 21T70 115T42 248Q42 325 72 384T158 476T292 509ZM287 439Q247 439 221 422T178 377T156 316T149 248Q149 214 155 180T177 119T219
75T287 58Q328 58 354 75T396 119T417 180T423 248Q423 282 417 316T396 377T354 422T287 439Z" />
<glyph unicode="1" horiz-adv-x="388" d="M45 80H159V393L44 359L24 414L196 497H258V80H367V-1H45V80Z" />
<glyph unicode="2" horiz-adv-x="468" d="M251 510Q294 510 330 497T388 455T410 381Q410 323 379 272T296 173T179 81H435L415 -1H30V65Q128 131 187 184T272 283T299 367Q299 403 281 418T235 434Q202 434 163 416T94 370L42 435Q92 474 145 492T251 510Z" />
<glyph unicode="3" horiz-adv-x="409" d="M222 511Q288 511 325 483T363 401Q363 362 346 326T295 259T218 201Q254 201 289 186T348 139T372 59Q372 4 349 -38T285 -111T191 -161T77 -188T-44 -197L-49 -147Q8 -143 63 -132T163 -98T234 -38T261 55Q261 103 233
126T164 149Q136 149 103 138L77 190Q111 204 143 226T201 274T242 328T257 384Q257 408 244 421T203 435Q171 435 133 417T71 371L21 438Q65 474 119 492T222 511Z" />
<glyph unicode="4" horiz-adv-x="476" d="M258 498H370V82H473L451 0H370V-185H269V0H-3V47L258 498ZM269 378L102 82H269V378Z" />
<glyph unicode="5" horiz-adv-x="382" d="M122 497H385L357 397H162L123 303Q211 270 265 216T320 80Q320 18 294 -32T222 -118T119 -177T-1 -208L-15 -159Q51 -142 101 -114T180 -40T209 72Q209 119 185 156T119 220T26 265L122 497Z" />
<glyph unicode="6" horiz-adv-x="539" d="M455 731L478 677Q390 638 328 585T226 473T169 353T151 237Q151 183 166 143T208 81T270 59Q309 59 335 80T375 135T388 205Q388 239 376 269T339 318T274 337Q244 337 211 325T144 288L157 360Q192 387 230 399T306
412Q371 412 414 385T478 314T499 220Q499 178 484 137T440 62T366 8T264 -13Q206 -13 155 14T72 97T40 238Q40 326 74 404T168 548T301 660T455 731Z" />
<glyph unicode="7" horiz-adv-x="433" d="M35 497H419V446L138 -187H20L321 407H10L35 497Z" />
<glyph unicode="8" horiz-adv-x="491" d="M254 730Q298 730 337 713T401 662T426 574Q426 523 396 473T304 383L252 429Q294 454 314 491T335 566Q335 616 312 639T255 663Q222 663 196 637T170 560Q170 525 185 501T227 458T282 416Q312 396 341 374T396 326T436
264T452 183Q452 118 421 75T341 10T238 -11Q187 -11 142 9T68 69T39 168Q39 230 75 282T183 378L232 330Q192 306 171 279T141 224T133 171Q133 114 164 86T235 57Q263 57 287 70T326 109T341 174Q341 213 319 241T262 293T192 344Q158 369 129 397T81 463T62
549Q62 608 90 648T163 709T254 730Z" />
<glyph unicode="9" horiz-adv-x="537" d="M273 510Q332 510 383 483T466 400T498 259Q498 172 464 95T370 -44T237 -149T83 -214L59 -159Q148 -124 210 -75T312 31T369 147T387 260Q387 315 372 355T330 416T267 438Q229 438 203 417T163 362T149 292Q149 259
161 229T199 180T263 161Q293 161 326 173T393 209L380 137Q346 111 308 99T232 86Q167 86 124 113T59 184T38 277Q38 319 53 360T97 436T171 490T273 510Z" />
<glyph unicode=":" horiz-adv-x="331" d="M234 362Q234 333 214 312T164 291Q135 291 114 312T93 362Q93 391 113 412T163 433Q192 433 213 412T234 362ZM234 58Q234 29 214 8T164 -13Q135 -13 114 8T93 58Q93 87 113 108T163 129Q192 129 213 108T234 58Z" />
<glyph unicode=";" horiz-adv-x="334" d="M164 433Q193 433 214 412T235 362Q235 332 215 312T164 291Q135 291 114 312T93 362Q93 391 114 412T164 433ZM157 130Q194 130 214 104T234 42Q234 -12 203 -56T129 -130L93 -93Q102 -84 113 -72T132 -47T141 -21Q141
-8 129 1T104 25T92 66Q92 93 111 111T157 130Z" />
<glyph unicode="&lt;" horiz-adv-x="630" d="M66 282L564 506V423L175 249L564 74V-7L66 218V282Z" />
<glyph unicode="=" horiz-adv-x="630" d="M68 382H566V304H68V382ZM68 189H566V111H68V189Z" />
<glyph unicode="&gt;" horiz-adv-x="630" d="M66 74L455 249L66 423V506L564 282V218L66 -7V74Z" />
<glyph unicode="?" horiz-adv-x="438" d="M191 723Q243 723 289 704T364 647T394 550Q394 499 372 462T313 399T229 356V217H146V416Q179 421 212 436T266 478T288 543Q288 592 253 616T172 640Q146 640 120 631T73 607L38 683Q67 701 110 712T191 723ZM185 129Q214
129 235 108T256 58Q256 29 235 8T185 -13Q156 -13 136 8T115 58Q115 88 135 108T185 129Z" />
<glyph unicode="@" horiz-adv-x="1029" d="M554 731Q641 731 718 705T854 627T947 501T981 331Q981 270 964 210T915 101T836 23T732 -6Q687 -6 650 7T594 68H590Q564 28 525 8T448 -13Q392 -13 358 16T307 92T291 196Q291 252 306 307T353 407T431 479T542 506Q569
506 600 496T657 460L681 497H733Q718 397 708 330T691 221T681 156T677 120T676 100Q676 81 689 69T736 57Q776 57 808 80T862 143T897 231T909 331Q909 412 881 474T804 580T691 647T554 670Q447 670 366 629T230 520T148 369T120 201Q120 126 141 58T205 -65T311
-150T461 -182Q513 -182 567 -168L584 -227Q555 -235 524 -239T461 -244Q357 -244 280 -207T151 -106T74 37T48 204Q48 281 68 357T129 500T231 620T372 701T554 731ZM546 435Q506 435 476 416T427 363T398 287T388 198Q388 142 406 101T467 59Q500 59 524 81T566
140T596 223T614 318L627 410Q586 435 546 435Z" />
<glyph unicode="A" horiz-adv-x="631" d="M365 730L620 0H498L419 233H189L109 0H11L267 730H365ZM305 586L216 314H392L305 586Z" />
<glyph unicode="B" horiz-adv-x="614" d="M542 560Q542 520 526 486T479 428T408 398Q458 390 495 363T554 295T576 204Q576 142 553 103T489 41T400 9T300 0H77V666Q77 667 74 681T67 711T63 730H314Q357 730 397 723T471 696T523 644T542 560ZM425 551Q425 587
410 608T368 639T308 648H189V435H295Q353 435 389 462T425 551ZM457 219Q457 267 432 297T368 340T286 353H189V82H300Q346 82 381 95T437 138T457 219Z" />
<glyph unicode="C" horiz-adv-x="624" d="M375 -12Q288 -12 225 17T119 98T56 217T35 359Q35 436 58 505T124 627T232 710T380 741Q416 741 458 733T541 709T606 666L546 593Q517 625 470 642T381 660Q323 660 281 635T212 567T171 471T157 363Q157 273 184 208T263
108T384 73Q426 73 474 84T574 123L609 59Q576 36 537 21T457 -3T375 -12Z" />
<glyph unicode="D" horiz-adv-x="699" d="M664 363Q664 258 626 176T512 47T325 0H78V666Q78 667 75 681T68 711T63 730H288Q406 730 490 689T619 567T664 363ZM546 363Q546 430 530 483T481 573T398 629T280 648H190V82H315Q400 82 450 121T523 224T546 363Z" />
<glyph unicode="E" horiz-adv-x="549" d="M64 730H510V648H190V416H437V335H190V82H510V0H78V666L64 730Z" />
<glyph unicode="F" horiz-adv-x="510" d="M64 730H478V648H190V416H416V335H190V0H78V666L64 730Z" />
<glyph unicode="G" horiz-adv-x="707" d="M386 741Q425 741 471 733T560 706T632 659L571 589Q540 613 514 628T458 651T386 659Q322 659 278 635T206 569T167 475T154 366Q154 314 165 263T202 168T270 98T372 72Q423 72 460 93T518 153T539 241V305H371L384
381H652L651 183Q650 137 653 91T658 0H599L566 76Q520 29 470 9T353 -12Q273 -12 214 17T115 98T56 215T36 357Q36 467 76 553T194 690T386 741Z" />
<glyph unicode="H" horiz-adv-x="714" d="M525 337H191V0H79V666Q79 667 76 681T69 711T65 730H191V418H525V730H637V0H525V337Z" />
<glyph unicode="I" horiz-adv-x="268" d="M64 730H190V0H78V666Q78 667 75 681T68 711T64 730Z" />
<glyph unicode="J" horiz-adv-x="268" d="M65 730H191V77Q191 20 184 -30T155 -119T93 -181T-14 -210L-29 -144Q9 -139 31 -120T63 -72T76 -12T79 52V666L65 730Z" />
<glyph unicode="K" horiz-adv-x="583" d="M64 730H190V404L460 730H570L303 407L589 0H454L190 376V0H78V666L64 730Z" />
<glyph unicode="L" horiz-adv-x="514" d="M64 730H190V82H488V0H78V666L64 730Z" />
<glyph unicode="M" horiz-adv-x="838" d="M224 730L392 279Q402 252 409 226T425 168Q433 199 439 224T455 276L622 730H766V0H656V514Q656 532 657 550T659 587Q653 570 647 553T634 518L445 -1H382L190 521Q184 537 178 554T166 587Q167 569 168 552T170 517V0H80V666L65
730H224Z" />
<glyph unicode="N" horiz-adv-x="714" d="M205 729L510 262Q520 247 530 231T550 200Q549 218 548 236T546 272V729H637V-5H557L204 535Q195 550 185 565T165 595Q167 579 168 563T169 529V0H78V665L64 729H205Z" />
<glyph unicode="O" horiz-adv-x="737" d="M367 -11Q284 -11 222 18T119 100T56 220T35 365Q35 442 55 510T118 629T222 710T368 740Q451 740 514 711T618 630T681 510T702 364Q702 286 681 218T617 99T512 18T367 -11ZM369 68Q430 68 471 94T537 163T573 258T584
362Q584 414 574 466T538 562T471 633T368 660Q307 660 266 634T200 565T165 469T154 366Q154 314 165 262T200 166T266 95T369 68Z" />
<glyph unicode="P" horiz-adv-x="575" d="M63 730H286Q359 730 416 708T507 639T540 510Q540 436 506 387T414 315T288 291H189V0H78V666L63 730ZM190 648V371H288Q352 371 387 409T423 510Q423 574 389 611T289 648H190Z" />
<glyph unicode="Q" horiz-adv-x="737" d="M1167 -170Q1133 -182 1106 -191T1053 -207T999 -216T935 -219Q890 -219 837 -206T729 -173T619 -128T518 -81T434 -42Q404 -28 371 -21T304 -6Q208 15 149 69T62 199T35 363Q35 438 55 505T116 626T221 710T369 741Q454
741 516 710T620 626T682 505T702 363Q702 295 683 229T622 107T510 19Q513 18 517 17T525 13Q551 0 591 -19T679 -60T780 -100T881 -131T972 -143Q993 -143 1023 -138T1087 -126T1148 -110L1167 -170ZM369 69Q429 69 470 94T536 162T573 257T584 363Q584 417 573
469T537 565T470 634T369 660Q309 660 268 634T202 565T166 469T154 362Q154 310 165 258T202 163T268 95T369 69Z" />
<glyph unicode="R" horiz-adv-x="591" d="M63 730H294Q362 730 418 712T507 650T540 529Q540 488 520 451T467 386T394 346L607 0H478L284 327H189V0H77V666L63 730ZM189 648V407H262Q307 407 343 418T401 456T423 533Q423 572 404 597T355 635T288 648H189Z" />
<glyph unicode="S" horiz-adv-x="516" d="M279 741Q332 741 382 726T475 684L419 609Q390 632 353 645T278 659Q231 659 196 635T161 559Q161 529 177 507T221 469T280 437Q315 420 352 402T420 358T470 296T490 205Q490 133 455 85T362 12T237 -12Q180 -12 125
2T20 44L61 138Q95 108 141 89T233 70Q266 70 297 82T349 121T370 187Q370 228 350 254T296 299T225 336Q192 351 160 368T101 409T58 464T42 543Q42 610 76 653T165 719T279 741Z" />
<glyph unicode="T" horiz-adv-x="578" d="M230 648H19V730H559V648H345V0H230V648Z" />
<glyph unicode="U" horiz-adv-x="707" d="M193 730V244Q193 164 235 116T361 68Q446 68 492 118T538 253V730H630V266Q630 174 596 112T500 19T353 -12Q222 -12 150 57T78 258V666L63 730H193Z" />
<glyph unicode="V" horiz-adv-x="603" d="M131 729L283 278Q291 252 298 227T312 172Q320 202 327 229T345 283L498 730H591L338 -3H264L12 729H131Z" />
<glyph unicode="W" horiz-adv-x="894" d="M121 730L241 290Q249 262 255 233T267 169Q274 205 281 237T297 301L413 730H505L624 287Q632 260 638 231T649 169Q656 205 663 237T679 300L796 730H888L687 -4H590L469 441Q463 464 458 488T448 540Q442 507 435 477T420
417L306 -4H208L6 730H121Z" />
<glyph unicode="X" horiz-adv-x="585" d="M148 730L583 0H453L19 730H148ZM445 730H561L118 0H2L445 730Z" />
<glyph unicode="Y" horiz-adv-x="584" d="M148 730L307 451L461 730H562L349 349V0H238V349L23 730H148Z" />
<glyph unicode="Z" horiz-adv-x="571" d="M49 730H531V660L161 82H546L536 0H26V73L392 648H49V730Z" />
<glyph unicode="[" horiz-adv-x="351" d="M81 731H293V678H178V-76H293V-130H81V731Z" />
<glyph unicode="\" horiz-adv-x="326" d="M-9 730H70L336 0H257L-9 730Z" />
<glyph unicode="]" horiz-adv-x="350" d="M59 -76H173V678H58V731H270V-129H59V-76Z" />
<glyph unicode="^" horiz-adv-x="618" d="M318 389L143 0H61L285 497H350L574 0H492L318 389Z" />
<glyph unicode="_" horiz-adv-x="499" d="M-7 -58H507V-133H-7V-58Z" />
<glyph unicode="`" horiz-adv-x="281" d="M155 734L257 576H168L23 734H155Z" />
<glyph unicode="a" horiz-adv-x="494" d="M253 509Q333 509 374 467T416 346V109Q416 85 424 77T445 68Q454 68 464 70T483 77L502 17Q483 6 457 -1T407 -9Q376 -9 355 6T327 59Q298 25 260 7T177 -11Q118 -11 78 23T38 119Q38 174 64 208T134 260T225 284T317
291V349Q317 390 300 413T239 436Q203 436 168 420T102 378L58 445Q100 477 150 493T253 509ZM317 219Q293 219 263 217T204 206T158 178T140 126Q140 97 161 83T210 68Q243 68 266 86T303 133T317 191V219Z" />
<glyph unicode="b" horiz-adv-x="558" d="M314 507Q366 507 404 485T468 425T507 342T520 251Q520 183 495 123T419 25T294 -13Q250 -13 213 3T147 54L128 -1H73Q74 16 75 33T76 67V708L62 765H175V503Q175 485 174 474T173 454Q205 482 238 494T314 507ZM285
428Q254 428 225 413T175 376V202Q175 163 186 131T222 78T291 58Q326 58 350 76T387 124T407 186T413 247Q413 276 406 307T384 366T345 411T285 428Z" />
<glyph unicode="c" horiz-adv-x="450" d="M278 509Q315 509 355 497T429 460L378 394Q352 415 327 425T273 436Q242 436 218 421T178 379T153 320T144 250Q144 160 183 111T286 62Q314 62 341 71T399 97L427 36Q387 12 350 0T266 -13Q196 -13 145 20T65 112T36
251Q36 329 68 387T154 477T278 509Z" />
<glyph unicode="d" horiz-adv-x="558" d="M264 508Q295 508 328 499T384 469Q383 485 383 498T383 526V708L368 765H481V143Q481 122 483 96T492 46T509 2L407 -9Q401 7 397 23T390 56Q366 23 327 5T247 -13Q194 -13 155 9T90 68T51 151T38 244Q38 314 63 374T138
471T264 508ZM270 433Q233 433 209 416T171 372T150 312T144 250Q144 219 150 187T172 128T213 84T276 67Q307 67 335 85T383 127V293Q383 330 372 362T336 413T270 433Z" />
<glyph unicode="e" horiz-adv-x="494" d="M268 510Q332 510 374 483T437 411T458 310Q458 295 457 279T452 247H141Q141 158 181 110T288 62Q317 62 349 71T416 100L448 43Q413 15 366 2T275 -12Q197 -12 144 23T64 116T36 244Q36 295 51 342T95 428T168 488T268
510ZM261 439Q228 439 204 421T165 374T146 316H355Q358 352 348 380T315 423T261 439Z" />
<glyph unicode="f" horiz-adv-x="288" d="M306 773Q331 773 356 768T403 748L377 678Q364 689 345 695T309 702Q270 702 247 686T211 640T194 575T189 497H323L303 427H189V0H91V427H13V487Q28 489 45 490T75 500T93 529Q102 573 107 603T124 659T162 713Q188
741 225 757T306 773Z" />
<glyph unicode="g" horiz-adv-x="477" d="M219 510Q249 510 274 503T328 496Q368 496 410 500T495 509L475 433H393Q387 433 380 434T367 436Q383 414 391 391T400 341Q400 290 376 251T309 189T209 167Q187 167 170 154T153 117Q153 101 163 94T190 85T223 83H298Q326
83 355 80T409 66T448 34T464 -25Q464 -79 441 -118T379 -182T294 -218T200 -230Q171 -230 139 -224T77 -204T30 -166T12 -104Q12 -64 37 -33T94 17V20Q74 29 61 48T48 90Q48 102 58 113T85 142T120 194Q82 217 60 254T38 338Q38 388 62 427T129 488T219 510ZM219
444Q185 444 163 413T141 337Q141 292 163 261T219 230Q255 230 276 260T298 336Q298 381 276 412T219 444ZM163 -1Q144 -13 129 -37T113 -85Q113 -108 130 -124T170 -147T215 -154Q248 -154 284 -146T346 -115T371 -53Q371 -28 355 -17T316 -4T271 -1H163Z" />
<glyph unicode="h" horiz-adv-x="547" d="M175 765V443Q205 471 242 490T323 510Q379 510 411 488T458 426T472 334V0H374V314Q374 341 370 367T351 410T299 428Q279 428 256 418T211 395T175 366V0H77V708L64 765H175Z" />
<glyph unicode="i" horiz-adv-x="251" d="M192 670Q192 642 173 622T125 602Q97 602 78 622T58 670Q58 698 77 717T125 737Q153 737 172 718T192 670ZM175 497V0H76V440L64 497H175Z" />
<glyph unicode="j" horiz-adv-x="251" d="M193 670Q193 642 174 622T126 602Q98 602 78 622T58 670Q58 698 78 717T126 737Q154 737 173 718T193 670ZM175 497V42Q175 0 170 -44T149 -128T102 -193T19 -226L2 -180Q39 -160 54 -126T73 -52T76 24V441L63 497H175Z" />
<glyph unicode="k" horiz-adv-x="464" d="M175 765V292L348 497H449L270 288L477 0H362L175 264V0H76V708L63 765H175Z" />
<glyph unicode="l" horiz-adv-x="251" d="M175 765V0H75V709L63 765H175Z" />
<glyph unicode="m" horiz-adv-x="829" d="M152 506Q159 490 163 473T170 439Q201 466 238 487T319 509Q364 509 397 491T450 431Q482 462 522 485T608 509Q663 509 695 487T741 425T755 335V0H656V316Q656 344 652 369T631 411T581 427Q550 427 518 406T466 365V0H367V318Q367
345 362 369T341 410T292 427Q272 427 251 418T210 394T176 366V0H78V359Q78 379 75 404T65 453T46 494L152 506Z" />
<glyph unicode="n" horiz-adv-x="547" d="M151 506Q158 490 162 473T169 438Q199 467 240 488T323 510Q379 510 412 488T459 426T473 334V0H375V313Q375 341 371 367T351 410T300 427Q279 427 256 418T212 395T175 366V0H77V354Q77 373 75 399T65 451T45 493L151 506Z" />
<glyph unicode="o" horiz-adv-x="537" d="M265 -13Q191 -13 140 23T63 117T36 245Q36 315 64 375T145 472T271 509Q346 509 397 474T474 380T500 251Q500 182 473 122T393 24T265 -13ZM266 58Q303 58 328 76T367 123T388 185T394 248Q394 279 389 312T370 374T333
420T270 438Q233 438 209 420T170 373T149 311T143 248Q143 219 148 186T168 124T206 76T266 58Z" />
<glyph unicode="p" horiz-adv-x="556" d="M149 506Q155 491 159 474T166 441Q190 473 229 491T308 509Q362 509 401 488T467 429T505 346T518 252Q518 183 493 123T418 25T291 -12Q261 -12 228 -2T172 28Q174 14 174 -1T174 -26V-159L188 -216H75V354Q75 374 73
400T64 451T45 493L149 506ZM280 430Q249 430 221 412T174 369V204Q174 167 184 135T220 83T286 63Q322 63 346 80T386 125T406 185T412 247Q412 278 406 310T384 369T343 413T280 430Z" />
<glyph unicode="q" horiz-adv-x="556" d="M262 509Q304 509 343 493T409 443L428 497H483Q482 480 481 464T480 430V-159Q480 -160 483 -173T489 -199T493 -216H381V-31Q381 -14 381 -2T382 20T384 43Q354 16 319 2T242 -12Q190 -12 152 11T88 71T50 154T37 245Q37
315 62 374T137 471T262 509ZM266 438Q231 438 207 420T169 372T149 310T143 246Q143 217 150 186T172 127T211 84T271 67Q301 67 331 81T381 119V295Q381 333 370 365T334 418T266 438Z" />
<glyph unicode="r" horiz-adv-x="349" d="M149 506Q169 460 173 408Q198 450 242 478T336 506L316 405Q270 405 236 381T174 316V0H76V361Q76 381 73 406T63 455T44 496L149 506Z" />
<glyph unicode="s" horiz-adv-x="430" d="M242 509Q277 509 313 501T379 476L344 404Q323 421 297 430T244 439Q212 439 187 424T162 377Q162 345 184 329T237 299Q262 288 287 276T335 247T371 205T385 142Q385 90 359 56T292 4T202 -13Q162 -13 120 -2T43 29L81
99Q106 82 135 71T194 59Q228 59 254 76T280 127Q280 151 267 166T231 193T184 215Q154 229 125 245T77 289T58 360Q58 410 84 443T153 492T242 509Z" />
<glyph unicode="t" horiz-adv-x="327" d="M208 640Q201 606 196 569T189 497H315L298 427H189V127Q189 112 192 97T206 72T238 63Q254 63 270 66T301 73L315 9Q290 1 264 -5T208 -11Q144 -11 117 21T90 117V427H12V484Q53 485 78 510T117 572T137 640H208Z" />
<glyph unicode="u" horiz-adv-x="553" d="M174 497V187Q174 161 178 134T199 88T249 70Q282 70 310 84T355 124T372 184V440Q372 441 369 454T364 481T360 497H472V110Q472 88 479 78T501 68Q515 68 539 77L558 17Q537 6 512 -1T462 -9Q434 -9 412 6T382 59Q352
28 311 8T225 -13Q169 -13 136 9T89 71T74 163V440L62 497H174Z" />
<glyph unicode="v" horiz-adv-x="455" d="M111 497L212 208Q220 189 225 170T236 127Q241 149 245 168T256 206L358 497H449L272 -5H182L6 497H111Z" />
<glyph unicode="w" horiz-adv-x="658" d="M105 497L183 235Q189 217 192 199T199 158Q203 180 206 198T215 234L298 497H378L457 235Q463 217 465 199T472 158Q476 181 479 199T488 235L570 497H656L499 -5H425Q408 52 391 106T358 216T328 337Q313 273 297 217T262
106T225 -5H150L2 497H105Z" />
<glyph unicode="x" horiz-adv-x="446" d="M127 497L446 -1H335L16 497H127ZM327 497H430L102 -1H0L327 497Z" />
<glyph unicode="y" horiz-adv-x="456" d="M113 497Q135 432 158 368T204 235Q212 209 220 181T236 125Q243 152 251 180T268 235Q290 303 313 367T358 497H450L273 -2Q262 -36 244 -74T202 -144T145 -198T71 -219H33V-144Q38 -145 42 -145T51 -145Q91 -145 117
-121T160 -63T187 3L6 497H113Z" />
<glyph unicode="z" horiz-adv-x="445" d="M50 497H406V443L157 71H419L407 0H26V53L273 425H50V497Z" />
<glyph unicode="{" horiz-adv-x="349" d="M271 -140Q189 -140 155 -96T120 26V188Q120 219 106 246T55 273V325Q83 325 96 339T114 375T119 418V571Q119 621 133 658T180 716T267 737H305V684Q269 684 250 677T223 652T216 598V429Q216 404 212 378T195 331T155
298Q182 287 194 267T211 220T216 168V-5Q216 -39 223 -57T251 -80T305 -86V-140H271Z" />
<glyph unicode="|" horiz-adv-x="235" d="M77 747H159V-111H77V747Z" />
<glyph unicode="}" horiz-adv-x="349" d="M79 737Q160 737 195 693T230 571V409Q230 379 244 352T294 324V273Q267 273 253 259T235 222T230 179V26Q230 -23 216 -61T169 -119T83 -140H45V-87Q81 -87 100 -80T126 -54T134 0V168Q134 194 138 220T155 267T195 299Q169
310 156 331T138 377T134 429V602Q134 637 126 654T99 678T45 684V737H79Z" />
<glyph unicode="~" horiz-adv-x="663" d="M584 298Q570 276 546 253T494 214T437 199Q407 199 380 209T328 233T276 257T222 268Q203 268 187 257T159 229T139 196L81 245Q93 271 114 295T163 334T222 349Q255 349 285 339T342 315T392 291T437 280Q467 280 490
302T527 350L584 298Z" />
<glyph unicode="&#xa0;" horiz-adv-x="230" />
<glyph unicode="&#xa1;" horiz-adv-x="329" d="M229 -233H99L128 279H200L229 -233ZM94 440Q94 469 114 489T164 509Q192 509 213 489T234 440Q234 411 214 391T164 371Q135 371 115 391T94 440Z" />
<glyph unicode="&#xa2;" horiz-adv-x="490" d="M284 485Q318 485 354 474T422 441L375 376Q351 394 329 404T280 414Q243 414 218 392T180 332T167 250Q167 169 200 127T290 85Q338 85 396 116L428 55Q389 33 353 22T274 11Q210 11 163 41T91 125T65 251Q65 322
93 374T172 456T284 485ZM272 37L257 -122H176L219 37H272ZM253 465L267 616H349L310 465H253Z" />
<glyph unicode="&#xa3;" horiz-adv-x="581" d="M47 82H140V502Q140 566 166 610T240 678T349 701Q408 701 454 674T532 596L448 549Q433 578 408 599T348 620Q299 620 275 588T251 509V82H543V0H47V82ZM63 292L73 363H413L403 292H63Z" />
<glyph unicode="&#xa4;" horiz-adv-x="536" d="M266 460Q329 460 378 422L432 476L490 418L432 361Q446 337 454 310T462 252Q462 222 454 195T432 143L490 87L432 30L379 82Q330 43 266 43Q234 43 206 53T152 82L100 30L43 87L99 143Q86 166 78 194T70 252Q70
282 78 309T99 361L43 418L100 476L153 421Q177 440 205 450T266 460ZM266 389Q234 389 208 371T168 322T153 252Q153 209 169 178T212 131T266 114Q295 114 321 130T364 177T380 253Q380 290 366 321T326 371T266 389Z" />
<glyph unicode="&#xa5;" horiz-adv-x="604" d="M158 701L317 422L471 701H572L359 320V0H248V320L33 701H158ZM71 389H549L538 319H60L71 389ZM72 251H550L538 181H60L72 251Z" />
<glyph unicode="&#xa6;" horiz-adv-x="238" d="M78 743H159V393H78V743ZM78 235H159V-115H78V235Z" />
<glyph unicode="&#xa7;" horiz-adv-x="498" d="M43 332Q43 385 69 419T136 470Q119 491 109 517T98 575Q98 624 125 660T198 717T297 737Q335 737 374 726T449 692L415 619Q387 643 357 654T298 665Q258 665 230 645T202 593Q202 562 221 540T269 498T332 459T395
415T444 357T463 278Q463 226 437 192T369 140Q387 120 397 94T408 35Q408 -14 381 -50T308 -106T209 -126Q171 -126 132 -115T57 -81L91 -9Q119 -33 149 -43T208 -54Q248 -54 276 -34T304 18Q304 48 285 70T237 112T174 151T111 195T62 253T43 332ZM147 347Q147
312 170 288T229 243T301 199Q325 204 341 220T358 264Q358 298 335 322T277 367T205 412Q181 406 164 390T147 347Z" />
<glyph unicode="&#xa8;" horiz-adv-x="285" d="M118 655Q118 631 101 613T59 595Q35 595 18 613T0 655Q0 679 17 696T59 714Q84 714 101 697T118 655ZM285 655Q285 631 267 613T225 595Q201 595 184 613T166 655Q166 679 183 696T225 714Q250 714 267 697T285 655Z" />
<glyph unicode="&#xa9;" horiz-adv-x="636" d="M592 250Q592 194 571 145T511 57T424 -2T318 -24Q261 -24 212 -3T124 56T65 144T44 250Q44 306 65 356T124 444T211 503T318 524Q374 524 423 503T511 443T570 356T592 250ZM553 250Q553 315 521 368T436 453T318
485Q253 485 200 453T115 368T83 250Q83 186 114 133T199 47T318 15Q383 15 436 47T521 132T553 250ZM438 116Q408 100 385 93T326 85Q278 85 244 107T192 166T175 251Q175 324 218 370T335 417Q360 417 386 408T433 383L397 338Q380 351 365 358T327 365Q300 365
283 347T257 303T249 254Q249 229 257 202T284 157T333 138Q356 138 373 146T407 168L438 116Z" />
<glyph unicode="&#xaa;" horiz-adv-x="315" d="M314 408Q297 399 280 394T247 388Q229 388 215 397T193 428Q174 408 150 398T99 387Q58 387 32 411T5 476Q5 512 21 535T65 570T124 587T186 592V623Q186 648 175 661T137 675Q115 675 90 663T49 635L16 686Q73
730 145 730Q198 730 226 703T254 621V472Q254 456 260 450T275 443Q280 443 286 445T300 449L314 408ZM186 537Q166 537 141 534T96 520T77 481Q77 465 89 455T118 445Q147 445 166 469T186 520V537ZM26 329H273V276H26V329Z" />
<glyph unicode="&#xab;" horiz-adv-x="466" d="M47 334L194 501L262 489L145 334L265 178L198 168L47 334ZM203 334L351 501L420 489L302 334L422 178L355 168L203 334Z" />
<glyph unicode="&#xac;" horiz-adv-x="638" d="M495 274H71V344H566V85H495V274Z" />
<glyph unicode="&#xad;" horiz-adv-x="313" d="M44 302H271V218H44V302Z" />
<glyph unicode="&#xae;" horiz-adv-x="466" d="M437 606Q437 550 409 504T335 430T233 402Q176 402 130 429T57 503T30 606Q30 662 57 708T130 782T233 809Q289 809 335 782T409 709T437 606ZM403 606Q403 653 380 691T319 752T233 775Q186 775 148 752T87 691T63
606Q63 560 86 522T148 460T233 437Q280 437 318 460T380 521T403 606ZM150 723H240Q272 723 296 710T320 657Q320 636 307 622T275 599L349 494H284L219 590H204V494H150V723ZM204 682V631H226Q245 631 255 637T266 659Q266 671 257 676T233 682H204Z" />
<glyph unicode="&#xaf;" horiz-adv-x="300" d="M0 689H300V621H0V689Z" />
<glyph unicode="&#xb0;" horiz-adv-x="388" d="M193 741Q235 741 268 721T322 668T342 593Q342 552 322 518T269 465T194 445Q153 445 119 465T66 519T46 593Q46 634 65 667T119 721T193 741ZM193 679Q158 679 134 654T110 593Q110 558 134 533T193 507Q230 507
253 532T277 593Q277 628 253 653T193 679Z" />
<glyph unicode="&#xb1;" horiz-adv-x="632" d="M355 107H278V264H68V340H278V496H355V340H566V264H355V107ZM68 77H566V0H68V77Z" />
<glyph unicode="&#xb2;" horiz-adv-x="455" d="M52 479Q52 479 69 494T115 534T175 591T235 658T281 729T299 795Q299 825 280 844T227 864Q203 864 180 856T140 837T112 818T102 809L65 864Q65 864 77 874T113 897T170 921T245 931Q300 931 333 913T382 864T397
802Q397 758 376 716T323 638T259 574T206 531T184 515H413L390 436H52V479Z" />
<glyph unicode="&#xb3;" horiz-adv-x="455" d="M57 482Q177 488 241 522T305 609Q305 640 287 654T244 672T195 676Q181 676 171 675T160 674L151 726Q179 732 210 742T264 772T287 822Q287 843 270 853T225 864Q193 864 157 849T98 814L61 866Q96 894 146 912T243
931Q275 931 305 923T356 895T377 839Q377 812 364 791T331 756T286 732Q333 726 366 697T399 617Q399 591 386 559T337 498T237 448T69 424L57 482Z" />
<glyph unicode="&#xb4;" horiz-adv-x="281" d="M133 734H265L120 576H32L133 734Z" />
<glyph unicode="&#xb5;" horiz-adv-x="552" d="M561 20Q536 13 509 2T456 -9Q425 -9 407 11T382 59Q357 32 319 10T242 -12Q209 -12 177 3V-187H75V441Q75 442 73 455T67 481T63 497H174V189Q174 163 178 135T199 89T249 71Q283 71 316 88T373 129V441Q373 442
370 455T364 481T360 497H471V112Q471 101 472 91T479 75T495 68Q499 68 508 70T527 76T542 81L561 20Z" />
<glyph unicode="&#xb6;" horiz-adv-x="508" d="M161 -109Q197 -117 217 -96T237 -43V298Q181 298 137 323T66 395T40 503Q40 580 69 627T149 696T263 718H463V658H407V10Q407 -23 391 -50T348 -90T286 -99Q277 -123 256 -139T208 -159T151 -154L161 -109ZM297
658V-43Q326 -43 337 -26T349 14V658H297Z" />
<glyph unicode="&#xb7;" horiz-adv-x="293" d="M217 259Q217 230 196 210T147 190Q118 190 98 210T77 259Q77 288 97 309T147 330Q176 330 196 309T217 259Z" />
<glyph unicode="&#xb8;" horiz-adv-x="280" d="M113 9H165L135 -46Q190 -47 219 -68T249 -127Q249 -173 214 -196T131 -220Q106 -220 79 -213T29 -191L55 -143Q70 -154 86 -159T118 -165Q137 -165 149 -156T162 -127Q162 -109 149 -98T107 -86Q97 -86 85 -87T57
-93L113 9Z" />
<glyph unicode="&#xb9;" horiz-adv-x="455" d="M79 503H207V830L84 795L63 853L236 921H301V503H404V436H79V503Z" />
<glyph unicode="&#xba;" horiz-adv-x="332" d="M172 736Q222 736 256 713T307 651T325 563Q325 516 305 477T249 414T162 391Q112 391 78 414T27 476T9 563Q9 611 29 650T85 712T172 736ZM167 683Q136 683 119 664T94 617T87 563Q87 539 94 511T119 464T167 444Q199
444 216 463T240 511T247 563Q247 589 240 616T216 663T167 683ZM43 329H291V276H43V329Z" />
<glyph unicode="&#xbb;" horiz-adv-x="466" d="M266 333L114 167L47 176L167 333L49 487L118 500L266 333ZM422 333L271 167L204 176L324 333L207 487L275 500L422 333Z" />
<glyph unicode="&#xbc;" horiz-adv-x="1121" d="M708 731H786L412 -4H336L708 731ZM79 313H207V640L84 605L63 663L236 731H301V313H404V246H79V313ZM927 106H700V151L927 484H1021V174H1095L1075 106H1021V0H927V106ZM932 374L797 174H927L932 374Z" />
<glyph unicode="&#xbd;" horiz-adv-x="1121" d="M708 731H786L412 -4H336L708 731ZM79 313H207V640L84 605L63 663L236 731H301V313H404V246H79V313ZM718 43Q718 43 736 58T782 98T841 155T901 222T947 293T965 359Q965 390 946 409T893 428Q869 428 847 420T807
401T779 382T768 373L731 428Q731 428 743 438T779 461T836 485T912 495Q967 495 1000 477T1048 429T1064 367Q1064 322 1043 280T990 202T926 138T873 95T851 79H1079L1057 0H718V43Z" />
<glyph unicode="&#xbe;" horiz-adv-x="1121" d="M708 731H786L412 -4H336L708 731ZM57 292Q177 298 241 332T305 419Q305 450 287 464T244 482T195 486Q181 486 171 485T160 484L151 536Q179 542 210 552T264 582T287 632Q287 653 270 663T225 674Q193 674 157
659T98 624L61 676Q96 704 146 722T243 741Q275 741 305 733T356 705T377 649Q377 622 364 601T331 566T286 542Q333 536 366 507T399 427Q399 401 386 369T337 308T237 258T69 234L57 292ZM927 106H700V151L927 484H1021V174H1095L1075 106H1021V0H927V106ZM932
374L797 174H927L932 374Z" />
<glyph unicode="&#xbf;" horiz-adv-x="431" d="M241 -226Q190 -226 143 -207T67 -150T38 -53Q38 -2 60 35T119 97T203 141V280H286V81Q253 76 220 61T165 19T143 -47Q143 -95 178 -119T259 -143Q286 -143 311 -134T359 -111L394 -186Q365 -204 322 -215T241 -226ZM247
368Q217 368 197 389T176 439Q176 468 196 488T247 509Q276 509 296 489T317 439Q317 409 297 389T247 368Z" />
<glyph unicode="&#xc0;" horiz-adv-x="631" d="M365 730L620 0H498L419 233H189L109 0H11L267 730H365ZM305 586L216 314H392L305 586ZM259 913L361 776H272L127 913H259Z" />
<glyph unicode="&#xc1;" horiz-adv-x="631" d="M365 730L620 0H498L419 233H189L109 0H11L267 730H365ZM305 586L216 314H392L305 586ZM368 913H501L356 776H267L368 913Z" />
<glyph unicode="&#xc2;" horiz-adv-x="631" d="M365 730L620 0H498L419 233H189L109 0H11L267 730H365ZM305 586L216 314H392L305 586ZM315 833L244 779H168L270 910H359L460 779H384L315 833Z" />
<glyph unicode="&#xc3;" horiz-adv-x="631" d="M365 730L620 0H498L419 233H189L109 0H11L267 730H365ZM305 586L216 314H392L305 586ZM475 892Q474 865 463 841T431 801T381 785Q354 785 330 795T285 815T240 825Q227 825 217 817T204 796H148Q151 838 176 870T247
903Q274 903 297 894T342 874T383 864Q395 864 406 871T421 892H475Z" />
<glyph unicode="&#xc4;" horiz-adv-x="631" d="M365 730L620 0H498L419 233H189L109 0H11L267 730H365ZM305 586L216 314H392L305 586ZM289 844Q289 820 272 802T230 784Q206 784 189 802T171 844Q171 868 188 885T230 903Q255 903 272 886T289 844ZM456 844Q456
820 438 802T396 784Q372 784 355 802T337 844Q337 868 354 885T396 903Q421 903 438 886T456 844Z" />
<glyph unicode="&#xc5;" horiz-adv-x="631" d="M365 730L620 0H498L419 233H189L109 0H11L267 730H365ZM305 586L216 314H392L305 586ZM314 995Q343 995 366 981T403 944T417 892Q417 851 387 821T314 790Q272 790 242 820T212 892Q212 920 226 944T263 981T314
995ZM314 937Q295 937 282 924T269 892Q269 873 282 860T314 847Q332 847 345 860T359 892Q359 911 346 924T314 937Z" />
<glyph unicode="&#xc6;" horiz-adv-x="849" d="M412 232H218L107 0H6L323 666L309 730H806V649H523V417H758V333H523V83H806V0H412V232ZM258 315H412V638L258 315Z" />
<glyph unicode="&#xc7;" horiz-adv-x="624" d="M375 -12Q288 -12 225 17T119 98T56 217T35 359Q35 436 58 505T124 627T232 710T380 741Q416 741 458 733T541 709T606 666L546 593Q517 625 470 642T381 660Q323 660 281 635T212 567T171 471T157 363Q157 273 184
208T263 108T384 73Q426 73 474 84T574 123L609 59Q576 36 537 21T457 -3T375 -12ZM338 9H390L360 -46Q415 -47 444 -68T474 -127Q474 -173 439 -196T356 -220Q331 -220 304 -213T254 -191L280 -143Q295 -154 311 -159T343 -165Q362 -165 374 -156T387 -127Q387
-109 374 -98T332 -86Q322 -86 310 -87T282 -93L338 9Z" />
<glyph unicode="&#xc8;" horiz-adv-x="549" d="M64 730H510V648H190V416H437V335H190V82H510V0H78V666L64 730ZM244 913L346 776H257L112 913H244Z" />
<glyph unicode="&#xc9;" horiz-adv-x="549" d="M64 730H510V648H190V416H437V335H190V82H510V0H78V666L64 730ZM353 913H486L341 776H252L353 913Z" />
<glyph unicode="&#xca;" horiz-adv-x="549" d="M64 730H510V648H190V416H437V335H190V82H510V0H78V666L64 730ZM300 833L229 779H153L255 910H344L445 779H369L300 833Z" />
<glyph unicode="&#xcb;" horiz-adv-x="549" d="M64 730H510V648H190V416H437V335H190V82H510V0H78V666L64 730ZM275 844Q275 820 258 802T216 784Q192 784 175 802T157 844Q157 868 174 885T216 903Q241 903 258 886T275 844ZM442 844Q442 820 424 802T382 784Q358
784 341 802T323 844Q323 868 340 885T382 903Q407 903 424 886T442 844Z" />
<glyph unicode="&#xcc;" horiz-adv-x="268" d="M64 730H190V0H78V666Q78 667 75 681T68 711T64 730ZM79 913L181 776H92L-53 913H79Z" />
<glyph unicode="&#xcd;" horiz-adv-x="268" d="M64 730H190V0H78V666Q78 667 75 681T68 711T64 730ZM188 913H321L176 776H87L188 913Z" />
<glyph unicode="&#xce;" horiz-adv-x="268" d="M64 730H190V0H78V666Q78 667 75 681T68 711T64 730ZM135 833L64 779H-12L90 910H179L280 779H204L135 833Z" />
<glyph unicode="&#xcf;" horiz-adv-x="268" d="M64 730H190V0H78V666Q78 667 75 681T68 711T64 730ZM109 844Q109 820 92 802T50 784Q26 784 9 802T-9 844Q-9 868 8 885T50 903Q75 903 92 886T109 844ZM276 844Q276 820 258 802T216 784Q192 784 175 802T157 844Q157
868 174 885T216 903Q241 903 258 886T276 844Z" />
<glyph unicode="&#xd0;" horiz-adv-x="699" d="M664 363Q664 258 626 176T512 47T325 0H78V666Q78 667 75 681T68 711T63 730H288Q406 730 490 689T619 567T664 363ZM546 363Q546 430 530 483T481 573T398 629T280 648H190V82H315Q400 82 450 121T523 224T546
363ZM21 405H346V331H21V405Z" />
<glyph unicode="&#xd1;" horiz-adv-x="714" d="M205 729L510 262Q520 247 530 231T550 200Q549 218 548 236T546 272V729H637V-5H557L204 535Q195 550 185 565T165 595Q167 579 168 563T169 529V0H78V665L64 729H205ZM519 892Q518 865 507 841T475 801T425 785Q398
785 374 795T329 815T284 825Q271 825 261 817T248 796H192Q195 838 220 870T291 903Q318 903 341 894T386 874T427 864Q439 864 450 871T465 892H519Z" />
<glyph unicode="&#xd2;" horiz-adv-x="737" d="M367 -11Q284 -11 222 18T119 100T56 220T35 365Q35 442 55 510T118 629T222 710T368 740Q451 740 514 711T618 630T681 510T702 364Q702 286 681 218T617 99T512 18T367 -11ZM369 68Q430 68 471 94T537 163T573
258T584 362Q584 414 574 466T538 562T471 633T368 660Q307 660 266 634T200 565T165 469T154 366Q154 314 165 262T200 166T266 95T369 68ZM314 913L416 776H327L182 913H314Z" />
<glyph unicode="&#xd3;" horiz-adv-x="737" d="M367 -11Q284 -11 222 18T119 100T56 220T35 365Q35 442 55 510T118 629T222 710T368 740Q451 740 514 711T618 630T681 510T702 364Q702 286 681 218T617 99T512 18T367 -11ZM369 68Q430 68 471 94T537 163T573
258T584 362Q584 414 574 466T538 562T471 633T368 660Q307 660 266 634T200 565T165 469T154 366Q154 314 165 262T200 166T266 95T369 68ZM423 913H556L411 776H322L423 913Z" />
<glyph unicode="&#xd4;" horiz-adv-x="737" d="M367 -11Q284 -11 222 18T119 100T56 220T35 365Q35 442 55 510T118 629T222 710T368 740Q451 740 514 711T618 630T681 510T702 364Q702 286 681 218T617 99T512 18T367 -11ZM369 68Q430 68 471 94T537 163T573
258T584 362Q584 414 574 466T538 562T471 633T368 660Q307 660 266 634T200 565T165 469T154 366Q154 314 165 262T200 166T266 95T369 68ZM370 833L299 779H223L325 910H414L515 779H439L370 833Z" />
<glyph unicode="&#xd5;" horiz-adv-x="737" d="M367 -11Q284 -11 222 18T119 100T56 220T35 365Q35 442 55 510T118 629T222 710T368 740Q451 740 514 711T618 630T681 510T702 364Q702 286 681 218T617 99T512 18T367 -11ZM369 68Q430 68 471 94T537 163T573
258T584 362Q584 414 574 466T538 562T471 633T368 660Q307 660 266 634T200 565T165 469T154 366Q154 314 165 262T200 166T266 95T369 68ZM530 892Q529 865 518 841T486 801T436 785Q409 785 385 795T340 815T295 825Q282 825 272 817T259 796H203Q206 838 231
870T302 903Q329 903 352 894T397 874T438 864Q450 864 461 871T476 892H530Z" />
<glyph unicode="&#xd6;" horiz-adv-x="737" d="M367 -11Q284 -11 222 18T119 100T56 220T35 365Q35 442 55 510T118 629T222 710T368 740Q451 740 514 711T618 630T681 510T702 364Q702 286 681 218T617 99T512 18T367 -11ZM369 68Q430 68 471 94T537 163T573
258T584 362Q584 414 574 466T538 562T471 633T368 660Q307 660 266 634T200 565T165 469T154 366Q154 314 165 262T200 166T266 95T369 68ZM344 844Q344 820 327 802T285 784Q261 784 244 802T226 844Q226 868 243 885T285 903Q310 903 327 886T344 844ZM511 844Q511
820 493 802T451 784Q427 784 410 802T392 844Q392 868 409 885T451 903Q476 903 493 886T511 844Z" />
<glyph unicode="&#xd7;" horiz-adv-x="534" d="M267 195L118 47L66 98L216 247L66 396L118 447L267 299L416 447L468 396L318 247L468 98L416 47L267 195Z" />
<glyph unicode="&#xd8;" horiz-adv-x="737" d="M367 -11Q284 -11 222 18T119 100T56 220T35 365Q35 442 55 510T118 629T222 710T368 740Q451 740 514 711T618 630T681 510T702 364Q702 286 681 218T617 99T512 18T367 -11ZM369 68Q430 68 471 94T537 163T573
258T584 362Q584 414 574 466T538 562T471 633T368 660Q307 660 266 634T200 565T165 469T154 366Q154 314 165 262T200 166T266 95T369 68ZM137 -55L78 -18L596 777L656 741L137 -55Z" />
<glyph unicode="&#xd9;" horiz-adv-x="707" d="M193 730V244Q193 164 235 116T361 68Q446 68 492 118T538 253V730H630V266Q630 174 596 112T500 19T353 -12Q222 -12 150 57T78 258V666L63 730H193ZM307 913L409 776H320L175 913H307Z" />
<glyph unicode="&#xda;" horiz-adv-x="707" d="M193 730V244Q193 164 235 116T361 68Q446 68 492 118T538 253V730H630V266Q630 174 596 112T500 19T353 -12Q222 -12 150 57T78 258V666L63 730H193ZM416 913H549L404 776H315L416 913Z" />
<glyph unicode="&#xdb;" horiz-adv-x="707" d="M193 730V244Q193 164 235 116T361 68Q446 68 492 118T538 253V730H630V266Q630 174 596 112T500 19T353 -12Q222 -12 150 57T78 258V666L63 730H193ZM363 833L292 779H216L318 910H407L508 779H432L363 833Z" />
<glyph unicode="&#xdc;" horiz-adv-x="707" d="M193 730V244Q193 164 235 116T361 68Q446 68 492 118T538 253V730H630V266Q630 174 596 112T500 19T353 -12Q222 -12 150 57T78 258V666L63 730H193ZM337 844Q337 820 320 802T278 784Q254 784 237 802T219 844Q219
868 236 885T278 903Q303 903 320 886T337 844ZM504 844Q504 820 486 802T444 784Q420 784 403 802T385 844Q385 868 402 885T444 903Q469 903 486 886T504 844Z" />
<glyph unicode="&#xdd;" horiz-adv-x="584" d="M148 730L307 451L461 730H562L349 349V0H238V349L23 730H148ZM353 913H486L341 776H252L353 913Z" />
<glyph unicode="&#xde;" horiz-adv-x="575" d="M192 730V614H282Q354 614 412 594T505 526T540 399Q540 324 504 276T410 204T284 181H191V1H79V666L65 730H192ZM289 262Q352 262 387 300T422 399Q422 461 389 496T290 532H191V262H289Z" />
<glyph unicode="&#xdf;" horiz-adv-x="568" d="M16 426V494Q40 494 57 499T85 518T101 556Q114 612 139 653T207 719T309 743Q360 743 401 728T466 683T490 610Q490 570 475 541T438 490T394 449T357 413T342 374Q342 349 357 334T396 307T446 283T496 255T535
211T551 142Q551 83 520 47T441 -4T338 -11T234 29L273 99Q299 77 328 68T385 60T429 79T446 127Q446 153 431 170T393 199T343 224T292 252T253 292T238 355Q238 388 252 412T288 456T331 495T367 538T382 591Q382 621 363 641T306 661Q268 661 245 643T210 595T194
532T190 470V0H91V426H16Z" />
<glyph unicode="&#xe0;" horiz-adv-x="494" d="M253 509Q333 509 374 467T416 346V109Q416 85 424 77T445 68Q454 68 464 70T483 77L502 17Q483 6 457 -1T407 -9Q376 -9 355 6T327 59Q298 25 260 7T177 -11Q118 -11 78 23T38 119Q38 174 64 208T134 260T225 284T317
291V349Q317 390 300 413T239 436Q203 436 168 420T102 378L58 445Q100 477 150 493T253 509ZM317 219Q293 219 263 217T204 206T158 178T140 126Q140 97 161 83T210 68Q243 68 266 86T303 133T317 191V219ZM188 734L290 576H201L56 734H188Z" />
<glyph unicode="&#xe1;" horiz-adv-x="494" d="M253 509Q333 509 374 467T416 346V109Q416 85 424 77T445 68Q454 68 464 70T483 77L502 17Q483 6 457 -1T407 -9Q376 -9 355 6T327 59Q298 25 260 7T177 -11Q118 -11 78 23T38 119Q38 174 64 208T134 260T225 284T317
291V349Q317 390 300 413T239 436Q203 436 168 420T102 378L58 445Q100 477 150 493T253 509ZM317 219Q293 219 263 217T204 206T158 178T140 126Q140 97 161 83T210 68Q243 68 266 86T303 133T317 191V219ZM300 734H432L287 576H199L300 734Z" />
<glyph unicode="&#xe2;" horiz-adv-x="494" d="M253 509Q333 509 374 467T416 346V109Q416 85 424 77T445 68Q454 68 464 70T483 77L502 17Q483 6 457 -1T407 -9Q376 -9 355 6T327 59Q298 25 260 7T177 -11Q118 -11 78 23T38 119Q38 174 64 208T134 260T225 284T317
291V349Q317 390 300 413T239 436Q203 436 168 420T102 378L58 445Q100 477 150 493T253 509ZM317 219Q293 219 263 217T204 206T158 178T140 126Q140 97 161 83T210 68Q243 68 266 86T303 133T317 191V219ZM245 653L176 580H101L200 730H290L393 579H316L245 653Z"
/>
<glyph unicode="&#xe3;" horiz-adv-x="494" d="M253 509Q333 509 374 467T416 346V109Q416 85 424 77T445 68Q454 68 464 70T483 77L502 17Q483 6 457 -1T407 -9Q376 -9 355 6T327 59Q298 25 260 7T177 -11Q118 -11 78 23T38 119Q38 174 64 208T134 260T225 284T317
291V349Q317 390 300 413T239 436Q203 436 168 420T102 378L58 445Q100 477 150 493T253 509ZM317 219Q293 219 263 217T204 206T158 178T140 126Q140 97 161 83T210 68Q243 68 266 86T303 133T317 191V219ZM406 703Q405 677 394 653T362 613T312 597Q285 597 261
607T216 626T171 636Q158 636 148 628T135 608H79Q82 649 107 682T178 715Q205 715 228 705T273 685T314 675Q326 675 337 682T352 703H406Z" />
<glyph unicode="&#xe4;" horiz-adv-x="494" d="M253 509Q333 509 374 467T416 346V109Q416 85 424 77T445 68Q454 68 464 70T483 77L502 17Q483 6 457 -1T407 -9Q376 -9 355 6T327 59Q298 25 260 7T177 -11Q118 -11 78 23T38 119Q38 174 64 208T134 260T225 284T317
291V349Q317 390 300 413T239 436Q203 436 168 420T102 378L58 445Q100 477 150 493T253 509ZM317 219Q293 219 263 217T204 206T158 178T140 126Q140 97 161 83T210 68Q243 68 266 86T303 133T317 191V219ZM220 655Q220 631 203 613T161 595Q137 595 120 613T102
655Q102 679 119 696T161 714Q186 714 203 697T220 655ZM387 655Q387 631 369 613T327 595Q303 595 286 613T268 655Q268 679 285 696T327 714Q352 714 369 697T387 655Z" />
<glyph unicode="&#xe5;" horiz-adv-x="494" d="M253 509Q333 509 374 467T416 346V109Q416 85 424 77T445 68Q454 68 464 70T483 77L502 17Q483 6 457 -1T407 -9Q376 -9 355 6T327 59Q298 25 260 7T177 -11Q118 -11 78 23T38 119Q38 174 64 208T134 260T225 284T317
291V349Q317 390 300 413T239 436Q203 436 168 420T102 378L58 445Q100 477 150 493T253 509ZM317 219Q293 219 263 217T204 206T158 178T140 126Q140 97 161 83T210 68Q243 68 266 86T303 133T317 191V219ZM245 763Q274 763 297 749T334 712T348 660Q348 618 318
588T245 557Q203 557 173 587T143 660Q143 688 157 711T194 749T245 763ZM245 704Q226 704 213 691T200 659Q200 641 213 628T245 615Q263 615 276 628T290 659Q290 678 277 691T245 704Z" />
<glyph unicode="&#xe6;" horiz-adv-x="774" d="M38 119Q38 174 64 208T134 260T225 284T317 291V349Q317 390 300 413T239 436Q203 436 166 420T102 378L58 445Q100 477 150 493T253 509Q300 509 337 494T396 449Q425 477 463 493T548 510Q612 510 654 483T717
411T739 310Q739 295 737 279T732 247H421Q421 196 438 154T486 87T559 62Q591 62 626 76T685 111L728 43Q705 24 676 12T616 -6T556 -12Q486 -12 437 16T357 92Q323 33 276 11T177 -11Q118 -11 78 23T38 119ZM140 126Q140 97 161 83T210 68Q243 68 266 86T303
133T317 191V219Q293 219 263 217T204 206T158 178T140 126ZM426 316H636Q639 372 614 405T542 439Q508 439 484 421T445 374T426 316Z" />
<glyph unicode="&#xe7;" horiz-adv-x="450" d="M278 509Q315 509 355 497T429 460L378 394Q352 415 327 425T273 436Q242 436 218 421T178 379T153 320T144 250Q144 160 183 111T286 62Q314 62 341 71T399 97L427 36Q387 12 350 0T266 -13Q196 -13 145 20T65 112T36
251Q36 329 68 387T154 477T278 509ZM237 9H289L259 -46Q314 -47 343 -68T373 -127Q373 -173 338 -196T255 -220Q230 -220 203 -213T153 -191L179 -143Q194 -154 210 -159T242 -165Q261 -165 273 -156T286 -127Q286 -109 273 -98T231 -86Q221 -86 209 -87T181 -93L237
9Z" />
<glyph unicode="&#xe8;" horiz-adv-x="494" d="M268 510Q332 510 374 483T437 411T458 310Q458 295 457 279T452 247H141Q141 158 181 110T288 62Q317 62 349 71T416 100L448 43Q413 15 366 2T275 -12Q197 -12 144 23T64 116T36 244Q36 295 51 342T95 428T168
488T268 510ZM261 439Q228 439 204 421T165 374T146 316H355Q358 352 348 380T315 423T261 439ZM209 734L311 576H222L77 734H209Z" />
<glyph unicode="&#xe9;" horiz-adv-x="494" d="M268 510Q332 510 374 483T437 411T458 310Q458 295 457 279T452 247H141Q141 158 181 110T288 62Q317 62 349 71T416 100L448 43Q413 15 366 2T275 -12Q197 -12 144 23T64 116T36 244Q36 295 51 342T95 428T168
488T268 510ZM261 439Q228 439 204 421T165 374T146 316H355Q358 352 348 380T315 423T261 439ZM321 734H453L308 576H220L321 734Z" />
<glyph unicode="&#xea;" horiz-adv-x="494" d="M268 510Q332 510 374 483T437 411T458 310Q458 295 457 279T452 247H141Q141 158 181 110T288 62Q317 62 349 71T416 100L448 43Q413 15 366 2T275 -12Q197 -12 144 23T64 116T36 244Q36 295 51 342T95 428T168
488T268 510ZM261 439Q228 439 204 421T165 374T146 316H355Q358 352 348 380T315 423T261 439ZM266 653L197 580H122L221 730H311L414 579H337L266 653Z" />
<glyph unicode="&#xeb;" horiz-adv-x="494" d="M268 510Q332 510 374 483T437 411T458 310Q458 295 457 279T452 247H141Q141 158 181 110T288 62Q317 62 349 71T416 100L448 43Q413 15 366 2T275 -12Q197 -12 144 23T64 116T36 244Q36 295 51 342T95 428T168
488T268 510ZM261 439Q228 439 204 421T165 374T146 316H355Q358 352 348 380T315 423T261 439ZM241 655Q241 631 224 613T182 595Q158 595 141 613T123 655Q123 679 140 696T182 714Q207 714 224 697T241 655ZM408 655Q408 631 390 613T348 595Q324 595 307 613T289
655Q289 679 306 696T348 714Q373 714 390 697T408 655Z" />
<glyph unicode="&#xec;" horiz-adv-x="252" d="M76 440Q76 441 73 454T68 480T64 497H175V0H76V440ZM69 734L171 576H82L-63 734H69Z" />
<glyph unicode="&#xed;" horiz-adv-x="252" d="M76 440Q76 441 73 454T68 480T64 497H175V0H76V440ZM181 734H313L168 576H80L181 734Z" />
<glyph unicode="&#xee;" horiz-adv-x="252" d="M76 440Q76 441 73 454T68 480T64 497H175V0H76V440ZM125 653L56 580H-19L80 730H170L273 579H196L125 653Z" />
<glyph unicode="&#xef;" horiz-adv-x="252" d="M76 440Q76 441 73 454T68 480T64 497H175V0H76V440ZM100 655Q100 631 83 613T41 595Q17 595 0 613T-18 655Q-18 679 -1 696T41 714Q66 714 83 697T100 655ZM267 655Q267 631 249 613T207 595Q183 595 166 613T148
655Q148 679 165 696T207 714Q232 714 249 697T267 655Z" />
<glyph unicode="&#xf0;" horiz-adv-x="536" d="M268 507Q282 507 295 505T320 499Q301 535 280 568T234 631L134 576L98 624L196 679Q182 695 168 709T142 736L210 777Q223 765 238 751T269 719L373 776L406 726L309 673Q356 618 399 549T470 404T499 248Q499
178 472 119T393 25T268 -10Q195 -10 144 25T65 119T37 248Q37 318 64 377T144 471T268 507ZM268 438Q231 438 207 419T169 371T150 309T144 247Q144 219 149 187T169 125T207 78T268 59Q305 59 330 77T368 124T387 186T392 247Q392 276 387 309T369 372T330 419T268
438Z" />
<glyph unicode="&#xf1;" horiz-adv-x="547" d="M151 506Q158 490 162 473T169 438Q199 467 240 488T323 510Q379 510 412 488T459 426T473 334V0H375V313Q375 341 371 367T351 410T300 427Q279 427 256 418T212 395T175 366V0H77V354Q77 373 75 399T65 451T45
493L151 506ZM443 703Q442 677 431 653T399 613T349 597Q322 597 298 607T253 626T208 636Q195 636 185 628T172 608H116Q119 649 144 682T215 715Q242 715 265 705T310 685T351 675Q363 675 374 682T389 703H443Z" />
<glyph unicode="&#xf2;" horiz-adv-x="537" d="M265 -13Q191 -13 140 23T63 117T36 245Q36 315 64 375T145 472T271 509Q346 509 397 474T474 380T500 251Q500 182 473 122T393 24T265 -13ZM266 58Q303 58 328 76T367 123T388 185T394 248Q394 279 389 312T370
374T333 420T270 438Q233 438 209 420T170 373T149 311T143 248Q143 219 148 186T168 124T206 76T266 58ZM210 734L312 576H223L78 734H210Z" />
<glyph unicode="&#xf3;" horiz-adv-x="537" d="M265 -13Q191 -13 140 23T63 117T36 245Q36 315 64 375T145 472T271 509Q346 509 397 474T474 380T500 251Q500 182 473 122T393 24T265 -13ZM266 58Q303 58 328 76T367 123T388 185T394 248Q394 279 389 312T370
374T333 420T270 438Q233 438 209 420T170 373T149 311T143 248Q143 219 148 186T168 124T206 76T266 58ZM322 734H454L309 576H221L322 734Z" />
<glyph unicode="&#xf4;" horiz-adv-x="537" d="M265 -13Q191 -13 140 23T63 117T36 245Q36 315 64 375T145 472T271 509Q346 509 397 474T474 380T500 251Q500 182 473 122T393 24T265 -13ZM266 58Q303 58 328 76T367 123T388 185T394 248Q394 279 389 312T370
374T333 420T270 438Q233 438 209 420T170 373T149 311T143 248Q143 219 148 186T168 124T206 76T266 58ZM266 653L197 580H122L221 730H311L414 579H337L266 653Z" />
<glyph unicode="&#xf5;" horiz-adv-x="537" d="M265 -13Q191 -13 140 23T63 117T36 245Q36 315 64 375T145 472T271 509Q346 509 397 474T474 380T500 251Q500 182 473 122T393 24T265 -13ZM266 58Q303 58 328 76T367 123T388 185T394 248Q394 279 389 312T370
374T333 420T270 438Q233 438 209 420T170 373T149 311T143 248Q143 219 148 186T168 124T206 76T266 58ZM428 703Q427 677 416 653T384 613T334 597Q307 597 283 607T238 626T193 636Q180 636 170 628T157 608H101Q104 649 129 682T200 715Q227 715 250 705T295
685T336 675Q348 675 359 682T374 703H428Z" />
<glyph unicode="&#xf6;" horiz-adv-x="537" d="M265 -13Q191 -13 140 23T63 117T36 245Q36 315 64 375T145 472T271 509Q346 509 397 474T474 380T500 251Q500 182 473 122T393 24T265 -13ZM266 58Q303 58 328 76T367 123T388 185T394 248Q394 279 389 312T370
374T333 420T270 438Q233 438 209 420T170 373T149 311T143 248Q143 219 148 186T168 124T206 76T266 58ZM241 655Q241 631 224 613T182 595Q158 595 141 613T123 655Q123 679 140 696T182 714Q207 714 224 697T241 655ZM408 655Q408 631 390 613T348 595Q324 595
307 613T289 655Q289 679 306 696T348 714Q373 714 390 697T408 655Z" />
<glyph unicode="&#xf7;" horiz-adv-x="630" d="M383 421Q383 393 364 373T316 353Q288 353 268 373T248 421Q248 449 268 469T316 489Q344 489 363 469T383 421ZM67 286H566V208H67V286ZM383 74Q383 46 364 27T316 7Q288 7 268 26T248 74Q248 102 268 121T316
141Q344 141 363 122T383 74Z" />
<glyph unicode="&#xf8;" horiz-adv-x="537" d="M265 -13Q191 -13 140 23T63 117T36 245Q36 315 64 375T145 472T271 509Q346 509 397 474T474 380T500 251Q500 182 473 122T393 24T265 -13ZM266 58Q303 58 328 76T367 123T388 185T394 248Q394 279 389 312T370
374T333 420T270 438Q233 438 209 420T170 373T149 311T143 248Q143 219 148 186T168 124T206 76T266 58ZM106 -70L52 -35L429 573L486 542L106 -70Z" />
<glyph unicode="&#xf9;" horiz-adv-x="553" d="M174 497V187Q174 161 178 134T199 88T249 70Q282 70 310 84T355 124T372 184V440Q372 441 369 454T364 481T360 497H472V110Q472 88 479 78T501 68Q515 68 539 77L558 17Q537 6 512 -1T462 -9Q434 -9 412 6T382
59Q352 28 311 8T225 -13Q169 -13 136 9T89 71T74 163V440L62 497H174ZM217 734L319 576H230L85 734H217Z" />
<glyph unicode="&#xfa;" horiz-adv-x="553" d="M174 497V187Q174 161 178 134T199 88T249 70Q282 70 310 84T355 124T372 184V440Q372 441 369 454T364 481T360 497H472V110Q472 88 479 78T501 68Q515 68 539 77L558 17Q537 6 512 -1T462 -9Q434 -9 412 6T382
59Q352 28 311 8T225 -13Q169 -13 136 9T89 71T74 163V440L62 497H174ZM329 734H461L316 576H228L329 734Z" />
<glyph unicode="&#xfb;" horiz-adv-x="553" d="M174 497V187Q174 161 178 134T199 88T249 70Q282 70 310 84T355 124T372 184V440Q372 441 369 454T364 481T360 497H472V110Q472 88 479 78T501 68Q515 68 539 77L558 17Q537 6 512 -1T462 -9Q434 -9 412 6T382
59Q352 28 311 8T225 -13Q169 -13 136 9T89 71T74 163V440L62 497H174ZM274 653L205 580H130L229 730H319L422 579H345L274 653Z" />
<glyph unicode="&#xfc;" horiz-adv-x="553" d="M174 497V187Q174 161 178 134T199 88T249 70Q282 70 310 84T355 124T372 184V440Q372 441 369 454T364 481T360 497H472V110Q472 88 479 78T501 68Q515 68 539 77L558 17Q537 6 512 -1T462 -9Q434 -9 412 6T382
59Q352 28 311 8T225 -13Q169 -13 136 9T89 71T74 163V440L62 497H174ZM249 655Q249 631 232 613T190 595Q166 595 149 613T131 655Q131 679 148 696T190 714Q215 714 232 697T249 655ZM416 655Q416 631 398 613T356 595Q332 595 315 613T297 655Q297 679 314 696T356
714Q381 714 398 697T416 655Z" />
<glyph unicode="&#xfd;" horiz-adv-x="456" d="M113 497Q135 432 158 368T204 235Q212 209 220 181T236 125Q243 152 251 180T268 235Q290 303 313 367T358 497H450L273 -2Q262 -36 244 -74T202 -144T145 -198T71 -219H33V-144Q38 -145 42 -145T51 -145Q91 -145
117 -121T160 -63T187 3L6 497H113ZM289 734H421L276 576H188L289 734Z" />
<glyph unicode="&#xfe;" horiz-adv-x="556" d="M308 509Q362 509 401 488T467 429T505 346T518 252Q518 183 493 123T418 25T291 -12Q261 -12 228 -2T172 28Q174 14 174 -1T174 -26V-159L188 -216H75V709L62 765H174V451Q199 478 235 493T308 509ZM280 430Q249
430 221 412T174 369V204Q174 167 184 135T220 83T286 63Q322 63 346 80T386 125T406 185T412 247Q412 278 406 310T384 369T343 413T280 430Z" />
<glyph unicode="&#xff;" horiz-adv-x="456" d="M113 497Q135 432 158 368T204 235Q212 209 220 181T236 125Q243 152 251 180T268 235Q290 303 313 367T358 497H450L273 -2Q262 -36 244 -74T202 -144T145 -198T71 -219H33V-144Q38 -145 42 -145T51 -145Q91 -145
117 -121T160 -63T187 3L6 497H113ZM209 655Q209 631 192 613T150 595Q126 595 109 613T91 655Q91 679 108 696T150 714Q175 714 192 697T209 655ZM376 655Q376 631 358 613T316 595Q292 595 275 613T257 655Q257 679 274 696T316 714Q341 714 358 697T376 655Z"
/>
<glyph unicode="&#x2013;" horiz-adv-x="481" d="M0 297H481V222H0V297Z" />
<glyph unicode="&#x2014;" horiz-adv-x="831" d="M0 297H831V222H0V297Z" />
<glyph unicode="&#x2018;" horiz-adv-x="286" d="M175 736L211 699Q203 690 192 678T172 653T163 627Q163 614 175 604T200 580T212 539Q212 513 194 494T148 475Q111 475 91 502T70 564Q70 617 101 661T175 736Z" />
<glyph unicode="&#x2019;" horiz-adv-x="286" d="M78 515Q86 523 97 535T116 561T125 587Q125 600 113 609T89 633T76 674Q76 701 95 719T141 738Q178 738 198 712T219 650Q219 596 188 552T114 478L78 515Z" />
<glyph unicode="&#x201a;" horiz-adv-x="276" d="M71 -93Q79 -84 90 -72T110 -47T119 -21Q119 -8 107 1T82 25T69 66Q69 93 88 111T134 130Q172 130 192 104T212 42Q212 -12 181 -56T107 -130L71 -93Z" />
<glyph unicode="&#x201c;" horiz-adv-x="487" d="M211 539Q211 513 193 494T147 475Q110 475 90 502T69 564Q69 617 101 661T174 736L210 699Q202 690 191 678T171 653T162 627Q162 614 174 604T199 580T211 539ZM409 539Q409 513 391 494T345 475Q308 475 288
502T267 564Q267 617 299 661T372 736L408 699Q400 690 389 678T369 653T360 627Q360 614 372 604T397 580T409 539Z" />
<glyph unicode="&#x201d;" horiz-adv-x="487" d="M80 515Q89 523 100 535T119 561T128 587Q128 600 116 609T91 633T79 674Q79 701 98 719T144 738Q181 738 201 712T221 650Q221 596 190 552T116 478L80 515ZM278 515Q287 523 298 535T317 561T326 587Q326 600
314 609T289 633T277 674Q277 701 296 719T341 738Q379 738 399 712T419 650Q419 596 388 552T314 478L278 515Z" />
<glyph unicode="&#x201e;" horiz-adv-x="477" d="M71 -93Q80 -84 91 -72T111 -47T119 -21Q119 -8 107 1T83 25T70 66Q70 93 89 111T135 130Q172 130 192 104T212 42Q212 -12 181 -56T107 -130L71 -93ZM266 -93Q274 -84 285 -72T305 -47T314 -21Q314 -8 302 1T277
25T264 66Q264 93 283 111T329 130Q367 130 387 104T407 42Q407 -12 376 -56T302 -130L266 -93Z" />
<glyph unicode="&#x2022;" horiz-adv-x="441" d="M221 500Q261 500 293 481T344 430T364 357Q364 317 345 285T294 233T222 214Q182 214 149 233T97 284T78 357Q78 397 97 429T148 481T221 500Z" />
<glyph unicode="&#x2039;" horiz-adv-x="298" d="M40 333L188 500L256 487L138 333L258 176L192 167L40 333Z" />
<glyph unicode="&#x203a;" horiz-adv-x="329" d="M273 331L122 166L55 175L176 331L58 486L126 499L273 331Z" />
</font>
</defs>
</svg>
